<mxfile host="app.diagrams.net" modified="2024-03-14T05:44:11.076Z" agent="Mozilla/5.0 (Windows NT 10.0; Win64; x64) AppleWebKit/537.36 (KHTML, like Gecko) Chrome/122.0.0.0 Safari/537.36" version="22.1.21" etag="ZvfYnv_8a4MIj6Fks6nK" type="github">
  <diagram name="第 1 页" id="gyxpJnNLte2R2evpFEbb">
    <mxGraphModel>
      <root>
        <mxCell id="0" />
        <mxCell id="1" parent="0" />
      </root>
    </mxGraphModel>
  </diagram>
</mxfile>
